/* XPM */
static char *_90d524c78fd49bae54b350d8ee29f30[] = {
/* columns rows colors chars-per-pixel */
"128 128 44 1 ",
"  c None",
". c #7F0000",
"X c #800000",
"o c #850B0B",
"O c #871111",
"+ c #891414",
"@ c #8D1B1B",
"# c #8F2020",
"$ c #912323",
"% c #962C2C",
"& c #982F2F",
"* c #973030",
"= c #9A3434",
"- c #9D3C3C",
"; c #9F4040",
": c #A14242",
"> c #A54C4C",
", c #A75050",
"< c #AA5454",
"1 c #AE5C5C",
"2 c #B26565",
"3 c #B56A6A",
"4 c #B86F6F",
"5 c #B77070",
"6 c #BA7474",
"7 c #BD7A7A",
"8 c #C28585",
"9 c #C58B8B",
"0 c #C99494",
"q c #CD9B9B",
"w c #D2A4A4",
"e c #D5ABAB",
"r c #D8AFAF",
"t c #D9B3B3",
"y c #DEBDBD",
"u c #E2C3C3",
"i c #E5CBCB",
"p c #EAD5D5",
"a c #EEDDDD",
"s c #EFE0E0",
"d c #F1E4E4",
"f c #F5ECEC",
"g c #F9F3F3",
"h c #FFFFFF",
/* pixels */
"                                                      XXXXXXXXXXXXXXXXXXXX                                                      ",
"                                                XXXXXXXXXXXXXXXXXXX.XXXXXXXXXXXX                                                ",
"                                            XXXXXXXXXXXXXXXXXXXXXXXXXXXXXXXXXXXXXXXX                                            ",
"                                         XXXXXXXXXXXXXXXXXXXXXXXXXXXXXXXXXXXXXXXXXXXXXX                                         ",
"                                       XXXXXXXXXXXXXXXXXXXXXXXXXXXXXXXXXXXXXXXXXXXXXXXXXX                                       ",
"                                    XXXXXXXXXXXXXXXXXXXXXXXXXXXXXXXXXXXXXXXXXXXXXXXXXXXXXXXX                                    ",
"                                  XXXXXXXXXXXXXXXXXXXXXXXXXXXXXXXXXXXXXXXXXXXXXX.XXXXXXXXXXXXX                                  ",
"                                XXXXXXXXXXXXXXXXXXXXXXXXXXXXXXXXXXXXXXXXXXXXXXXXXXXXXXXXXXXXXXXX                                ",
"                               XXXXXXXXXXXXXXXXXXXXXXXXXXXXXXXX.XXXXXXXXXXXXXXXXXXXXXXXXXXXXXXXXX                               ",
"                             XXXXXXXXXXXXXXXXXXXXXXXXXXXXXXXXXXXXXXXXXXXXXXXXXXXXXXXXXXXXXXXXXXXXXX                             ",
"                            XXXXXXXXXXXXXXXXXXXXXXXXXXXXXXXXXXXXXXXXXXXXXXXXXXXXXXXXXXXXXXXXXXXXXXXX                            ",
"                          XXXXXXXXXXX.XXX.XXXXXXXXXXXXXXXXXXXXXXXXXXXXXXXXXXXXXXXXXXXXXXXXXXXXXXXXXXXX                          ",
"                         XXXXXXXXXXXXXXXXXXXXXXXXXXXXXXXXXXXXXXXXXXXXXXXXXXXXXXXXXXXXXXXXXXXXXXXXXXXXXX                         ",
"                        XXXXXXXXXXXXXXXXXXXXXXXXXXXXXXXXXXXXXXXXXXXXX.XXXXXXXXXXXXXXXXXXXXXXXXXXXXXXXXXX                        ",
"                      XXXXXXXXXXXXXXXXXXXXXXXXXXXXXXXXXXXXXXXXXXXXXXXXXXXXXXXXXXXXXXXXXXXXXX.XXXXXXXXXXXXX                      ",
"                     XXXXXXXXXXXXXXXXXXXXXXXXXXXXXXXXXXXXXXXXXXXXXXXXXXXXXXXXXXXXXXXX.XXXXXXXXXXXXXXXXXXXXX                     ",
"                    XXXXXXXXXXXXXXXXXXXXXXXXXXXXXXXXXXXXXXXXXXXXXXXX.XXXXXXXXXXXXXXXXXXXXXXXXXXXXXXXXXXXXXXX                    ",
"                   XXXXXXXXXXXXXXXXXXXXXXXXXXXXXXXXXXXXXXXXXXXXXXXXXXXXXXXXXXXXXXXXXXXXXXXXXXXXXXXXXXXXXXXXXX                   ",
"                  XXXXXXXXXXXXXXXXXXXXXXXXXXXXXXXXXXXXXXXXXXXXXXXXXXXXXXX.XXXXXXXXXXXXXXXXXXXXXXXXXXXXXXXXXXXX                  ",
"                 XXXXXXXXXXXXXXXXXXXXXXXXXXXXXXXXXXXXXXXXXXXXXXXXXXXXXXXXXXXXXXXXXXXXXXXXXXXXXXXXXXXXXXXXXXXXXX                 ",
"                XXXXXXXXXXXXXXXXXXXXXXXXXXXXXXXXXXXXXXXXXXXXXXXXXXXXXXXXXXXXXXXXXXXXXXXXXXXXXXXXXXXXXXXXXXXXXXXX                ",
"               XXXXXXXXXXXXXXXXXXXX.XXXXXXXXXXXXXXXXXXXXXXXXXXXXXXXXXXXXXXXXXXXXXXXXXXXXXXXXXXXXXXXXXXXXXXXXXXXXX               ",
"              XXXXXXXXXXXXXXXXXXXXXXXXXXXXXXXXXXXXXXXXXXXXXXXXXXXXXXXXXXXXXXXXXXXXXXXXXXXXXXXXXXXXXXXXXXXXXXXXXXXX              ",
"             XXXXXXXXXXXXXXXXXXXXXXXXXXXXXXXX.XXXXXXXXXX.XXXXXXXXXXXXXXXXXXXXXXXXXXX.XXXXXXXXXXXXXXXXXXXXXXXXXXXXXX             ",
"             XXXXXXXXXXXXXXXXXXXXXXXXXXXXXXXXXXXXXXXXXXXXXXXXXXXXXXXXXXXXXXXXXXXXXXXXXXXXXXXXXXXXXXXXXXXXXXXXXXXXXX             ",
"            XXXXXXXXXXXXXXXXXXXXXXXXXXXXXXXXXXXXXXXXXXXXXXXXXXXXXXXXXXXXXXXXXXXXXXXXXXXXXXXXXXX.XXXXXXXXXXXXXXXXXXXX            ",
"           XXXXXXXXXXXXXXXXXXXXXXXXXXXXXXXXXXXXXX.XXXXXXXXXXXX.XXXXXXXXXXXXXXXXXXXXXX.XXXXXXXXXXXXXXXXXXXXXXXXXXXXXXX           ",
"          XXXXXXXXXXXXXXXXXXXXXXXXXXXXXXXXXXXXXXXXXXXXXXXXXXXXXXXXXXXXXXXXXXXXXXXXXXXXXXXXXXXXXXXXXXXXXXXXXXXXXXXXXXX           ",
"          XXXXXXXXXXXXXXXXXXXXXXXXXXXXXXXXXXXXX.XXXXXXXXXXXXXXXXXXXXXXXXXXX.XXXXXXXXXXXXXXXXXXXXXXXXXXXXXXXXXXXXXXXXXX          ",
"         XXXXXXXXXXXXXXXXXXXXXXXXXXXXXXXXXXXXXXXXXXXXXXXXXXXXXXXXXXXXXXXXXXXXXXXXXXXXXXXXXXXXXXXXXXXXXXXXXXXXXXXXXXXXXX         ",
"         XXXXXXXXX.XXXXXXXXXXXXXX.XXXXXXXXXXXXXXXXXXXXXXXXXXXXXXXX.XXXXXXXXXXXXXXXXXXXXXXXXXXXXXXXXXXXXXXXXXXXXXXXXXXXX         ",
"        XXXXXXXXXXXXXXXXXXXXXXXXXXXXXXXXXXXXXXXXXXXXXXXXXXXXXXXXXXXXXXXXXXXXXXXXXXXXXXXXXXXXXXXXXXXXXXXXXXXXXXXXXXXXXXXX        ",
"       XXXXXXXXXXXXXXXXXXXXXXXXXXXXXXXXXXXXXXXXXXXXXXXXXXXXXXXXXXXXXXXXXXXXXXXXXXXXXXXXXXXXX.XXXXXXXXXXXXXXXXXXXXXXXXXXXX       ",
"       XXXXXXXXXXXXXXXXXXXXXXXXXXXXXXXXXXXXXXXXXX.XXXXXXXXXXXXXXXXXXXXXXXXXXXXXXXXXXXXXXXXXXXXXXXXXXXXXXXXXXXXXXXXXXXXXXX       ",
"      XXXXXXXXXXXXXXXXXXXXXXXXXXXXXXXXXXXXXXXXXXXXXXXXXXXXXXXXXXXXXXXXXXXXXXXXXXXXXXXXXXXXXXXXXXXXXXXXXXXXXXXXXXXX.XXXXXXX      ",
"      XXXXXXXXXXX.XXXXXXXXXXXXXXXXXXXX.XXXXXXXXXXXXXXXXXXXXXXXX.XXXXXXXXXXXXXXXXXX.XXXXXXXXXXXXXXXXXXXXXXXXXXXXXXXXXXXXXXX      ",
"     XXXXXXXXXXXXXXXXXXXXXXXXXXXXXXXXXXXXXXXXXXXXXXXXXXXXXXXXXXXXXXXXXXXXXXXXXXXXXXXXXXXXXXXXXXXXXXXXXXXXXXXXXXXXXXXXXXXXXX     ",
"     XXXXXXXXXXXXXXXXXXXXXXXXXX.XXXXXXXX.XXXXXXXXXXXXXXXXXXXXXXXXXXXXXXXXXXXXXXXXXXXXXXXXXXXXXXXXXXXXXXXXXXXXXXXXXXXXXXXXXX     ",
"    XXXXXXXXXXXXXXXXXXXXXXXXXXXXXXXXXXXXXXXXXXXXXXXXXXXXXXXXXXXXXXXXXXXXXXX.XXXXXXXXXXXXXXXXXXXXXXXXXXXXXXXXXXXXXXXXXXXXXXX     ",
"    XXXXXXXXXXXXXXXXXXXXXXXXXXXXXXXXXXXXXXXXXXXXXXXXXXXXXXXXXXXXXXXXXXXXXXXXXXXXXXXXXXXXXXXXXXXXXXXXXXXXXXXXXXXXXXXXXXXXXXXX    ",
"    XXXXXXXXXXXXXXXXXXXXXXXXXXXXXXXXXXXXXXXXXXXXXXXXXXXXXXXXX.XXX.XXXXXXXXXXX.XXXXXXXXXXXXXXXXXXXXXXXXXXXXXXXXXXXXXXXXXXXXXX    ",
"   XXXXXXXXXXXXXXXXXXXXXXXXXXXX.XXXXXXXXXXXXXXXXXXXXXXXXXXXXXXXXXXXXXXXXXXXXXXXXXXXXXXXXXXXXXXXXXXXXXXXXXXXXXXXXXXXXXXXXXXXXX   ",
"   XXXXXXXXXXXXXXXXXXXXXXXXXXXXXXXXXXXXXXXXXXXXXXXXXXXXXXXXXXXXXXXXXXXXXXXXXXXXXXXXXXXXXXXXXXXXXXXXXXXXXXXXXXXXXXXXXXXXXXXXXX   ",
"   XXXXXXXXXXXXXXXXXXXXXXXXXXXXXXXXXXXXXXXXXXXXXXXX.XXXXXXXXXXXXXXXXXXXXXXXXXXXXXXXXXXXXXXXXXXXXXXXXXXXXXXXXXXXXXXXXXXXXXXXXX   ",
"  XXXXXXXXXXXXXXXX.XXXXXXXXXXXXXXXXXXXXXXXXXXXXXXXXXXXXXXXXXXXXXXXXXXXXXXXXXXXXXXXXXXXXXXXXXXXXXXXXXXXXXXXXXXXXXXXXXXXXXXXXXXX  ",
"  XXXXXXXXXXXXXXXXXXXXXXXXXXXXXXXXXXXXXXXXXXXXXXXXXXXXXXXXXXXXXXXXXXXXXXXXXXXXXXXXXXXXXXXXXXXXXXXXXXXXXXXXXXXXXXXXXXXXXXXXXXXX  ",
"  XXXXXXXXXXXXXXXXXXXXXXXXXXXXXXXXXXXXXXXXXXXXXXXXXXXXXXXXXXXXXXXXXXXXXXXXXXXXXXXXXXXXX.XX.XXXXXXXXXXXXXXXXXXXXXXXXXXXXXXXXXXX  ",
" XXXXX.XXXXXXXXXXXXXXXXXXXXXXXXXXXXXXX.XXXXXXXXXXXXXXXXXXXXXXXXXXXXXXXXXXXXXXXXXXXXXXXXXXXXXXXXXXXXXXXXXXXXXXXXXXXXXXXXXXXXXXX  ",
" XXXXXXXXXXXXXXXXXXXXXXXXXXXXXXXXXXXXXXXXXXXXXXXXXXXXXXXXXXXXXXXXXXXXXXXXXXXXXXXXXXXXXXXXXXXXXXXXXXXXXXXXXXXXXXXXXXXXXXXXXXXXXX ",
" XXXXXXXXXXXXXXXXXXXXXXXXXXXXXXXXXXXXXXXXXXXXXXXXXXXXXXXXXXXXXXXXXXXXXXXXXXXXXXXXXXXXXXXXXXXXXXXXXXXXXXXXXXXXXXXXXXX..XXXXXXXXX ",
" XX.......X.XXXXXXXXX.......XXX............X......XXXXX....X..........XXXXXXXXXXXX..X..........X...XXXXXXXXXXX.X..XX..X....XXXX ",
" XX+$#$$#@o.XXXXXXXXo@$$$#$OXXXo@#$$$#$$$$$$$#$$#oXXXXX+$$$$$#$$$#@@+oX.XXXXXXXXXo#$$$$#$$$$$$$$$$@oXXXXXXXXXX.o@%>2443<=@oX.XX ",
" XX<uppppi2oXXXXXX.o2ippppi1XX.%tpppppppppppppppp<oX.XX6ppppppppppiue81%o.X.XXXX.1ipppppppppppppppy=.XXXXXXX.o=7tpdfggffpu9>@XX ",
"XXX@ehhhhhi=.XXXX..=ihhhhhe#XX.-phhhhhhhhhhhhhhhg2XXXXo9hhhhhhhhhhhhhhgi6@X.XXXX.3ghhhhhhhhhhhhhhhp-.X.XX.XX$8pghhhhhhhhhhhfq@..",
"XXXX-ihhhhhq+XXXX.+whhhhhp:XXX.=phhhhhhhhhhhhhhhh2XXX..9hhhhhhhhhhhhhhhhg0@.XXXX.3ghhhhhhhhhhhhhhha-..XXXXX-tghhhhhhhhhhhhhhp=.X",
"XXXXo4fhhhhf3oXX.o3fhhhhf4oXXXX=phhhhhhhhhhhhhhhg3XXX..9hhhhhhhggghhhhhhhf2XXXXX.3ghhhhhhhhhhhhhhha-.XXXXX:uhhhhhhhhgggghhhhi=.X",
"XXXX.+whhhhhi-...-ihhhhhw+XXXX.=phhhhhpuuuuuuuuuy<XXXXX9hhhhha96670uhhhhhhe+.XXX.3ghhhhgpuuuuuuuuue%XXXX.%thhhhhhgi031140ufhi=.X",
"XXXXX.=ihhhhhw@.@whhhhhi-.XXXX.=phhhhh7$###@#@#@@oXXXX.9hhhhhu%XoXo=yhhhhhu%..XX.3ghhhhs<@##@##@@$+oXXXXo8ghhhhhd8%oX.Xoo@1ey=.X",
"XXXXXXo2fhhhhf5o5fhhhhf2oXXXXXX=phhhhg3X.XXX....XXXXXX.9hhhhhu%X...o8hhhhhp=.XXX.3ghhhha-.X.XX..X.XXXXXX-phhhhhf5oXXXXXX...@:@.X",
"XXXXX..+0hhhhhp7phhhhhq+.XXXXX.=phhhhh4XXXXXXX..XXXXX..9hhhhhu$XX.XX7ghhhhi%.XXX.3ghhhha-.XXXX..XXXXXX.o6hhhhhhq+XXXXXXXXXX.XXXX",
"XXXXXXX.=uhhhhhfhhhhhi=...XXXX.=phhhhh2..........XXXXX.9hhhhhu$....$thhhhhe+.XXX.3ghhhhp-...........XX.+thhhhhd:XXXXXXXXXXXXXXXX",
"XXXXXXXXo1dhhhhhhhhhf1oXXXXXXX.=phhhhhe323232333:oXXXXo9hhhhhp5<<14eghhhhf2oXXXX.3ghhhhf9323233332*oXX.%phhhhht+XXXXXXXXXXXXXXXX",
"XXXXXXXX.+0hhhhhhhhh0+.XXXXXXX.=phhhhhhghhhghhgheOXXXXX9hhhhhhfffgghhhhhd8+.XXXX.3ghhhhhhhhghghhgg6.XX.:dhhhhh9oXXXXXXXXXXXXXXXX",
"XXXXXXXX..%yhhhhhhhu*..XXXXXXX.=phhhhhhhhhhhhhhheOXXXXX9hhhhhhhhhhhhhhhg9@.XXXXX.3ghhhhhhhhhhhhhhg6.XX.1fhhhhg5oXXXXXXXXXXXXXXXX",
"XXXXXXXXXXoqhhhhhhhwO.XXXXXXXX.-phhhhhhhhhhhhhhhw+.X...9hhhhhhhhhhhhhhhhi6+XXXXX.3ghhhhhhhhhhhhhhg7..XX1fhhhhg3o.XXXXXXXXXXXXXXX",
"XXXXXXXXXX>ahhhhhhha,oXXXXXXX..=phhhhhhhhghhhghhw+.X..o9hhhhhgdaaafghhhhhf9+XXXX.3ghhhhhhhghhghhhg6.XX.1fhhhhh5XXXXXXXXXXXXXXXXX",
"XXXXXXXXX%yhhhhhhhhhy$XX.XXXXX.=phhhhhe777767767<oXXXX.9hhhhhp2;::>4yhhhhhd<XXXX.3ghhhhfq677677676-XXX.>dhhhhh8oXXXXXXXXXXXXXXXX",
"XXXXXXX.o8ghhhhhhhhhg9o.XXXXXXX=phhhhg3oXX.oXXoXXXXXXX.9hhhhhu$....X=uhhhhhw+.XX.3ghhhha-.oXoXXoXXX..X.%phhhhhe+.XXXXXXXXXXXXXXX",
"XXXXXXXX<dhhhhgpghhhhd<XXXXXXX.=phhhhg4.XXXXXXXXXXXXXXo9hhhhhu$XXXX.o8hhhhhi#.XX.3ghhhha-.XXXXXXXXXXXX.@yhhhhhp=.XX.XXXXXXXXXXXX",
"XXXXXX.%yhhhhht>thhhhhu%.XXXXX.=phhhhh4.XXXXXXXXXXXXXX.9hhhhhu$XXXXXo3ghhhha%.XX.3ghhhhd:...XXX.XXX.XX.o8hhhhhg9o.XXXXXXXXXX.XXX",
"XXXXX.+9ghhhha>X>phhhhg0+XXXXXX=phhhhg3...........XXXXX9hhhhhu$XXXX.o9hhhhhp%.XX.3ghhhhp-...........XX..:shhhhhd1o.XXXX.X.XO&+XX",
"XXXXXX1dhhhhg8o.o7ghhhhd1XXXXX.=phhhhg7@@@@@@+@@@+XXXXX9hhhhhu%....o:ihhhhhi@.XX.3ghhhhd,+@@@@@+@@@oXXX.+0hhhhhhp3@.....X+;9e=.X",
"XX.X.%uhhhhht$.XX#ehhhhhu=.XXX.=phhhhhieeeeeeeeee6+.XXX9hhhhhp612129phhhhhh0+.XX.3ghhhhgyeeeeeeeeew>X.XX.=uhhhhhhft5<::<5wphp%.X",
"XX..+0ghhhhp>XXXXX:phhhhg0+.XXX=phhhhhhhhhhhhhhhhr+.XXX9hhhhhhggfgghhhhhhhd>XXXX.3ghhhhhhhhhhhhhhhh5oXXXXo<phhhhhhhgdasfhhhhp=.X",
"XXXo1fhhhhg7o..XXXo5fhhhhf2.XX.=phhhhhhhhhhhhhhhhr+...o9hhhhhhhhhhhhhhhhhf7oXXXX.3ghhhhhhhhhhhhhhhg5XXXXXXo<ihhhhhhhhhhhhhhhp=.X",
" X.=ihhhhhe@..XXXX.@whhhhhi-XX.=phhhhhhhhhhhhhhhhr+X...9hhhhhhhhhhhhhhhgu3+.XXXX.3ghhhhhhhhhhhhhhhh6oXXXXXXX-qdhhhhhhhhhhhhge$. ",
" Xo7paasdu:.XXXXXXXX-ysaaap8OXX%ysaaaaasaaaasaaaa0+XXXX7saaaaaaaaappitq2$oXXXXXX.1pdaaaaaaasaaaaaap2oXXXXXXXX+<qifghhghhgie4%o. ",
" .o=:::::%o.XXXXXXXXo%:::::=oXXo=::::::::::::::::%oXXXX$::::::::::--%@oX.XXXXXXX.@-::::::::::::::::@XXXXXXXXX.Xo%>279874<-+X.XX ",
" XX.......XXXXXXXXXXX........XXX..................XXXXX...............XXXXXXXXXXX...................XXXXXXXXXXXX..Xooooo...XXXX ",
" XXX.XXXXXXXXXXXXXXXXXX.XX.XXXXX..X..XX.XX....XXX.XXXXXXXX....XX.XX.XXXXXXXXXXXXXXXX..X..XX.XX.XXXXXXXXXXXXXXXXXXXX....X..XXXXX ",
" XXXXXXXXXXXXXXXXXXXXXXXXXXXXXXXXXXXX.XXXXXXXXXXXXXXXXXXXXXXXXXX.XXXXXXXXXXXXXXXXXXXX.XX.XXXXXXXXXXXXXXXXXXXXXXXXXXXXXXXXXXXXX  ",
"  XXXXXXXXXXXX.XXXXXXXXXXXXXXXXXXXXXXXXXXXXXXXXXXXXXXXXXXXXXXXXXXXXXXXXXXXXXXXXXXXXXXXXXXXXXXXXXXXXXXXXXXXXXXXXXXXXXXXXXXXXXXX  ",
"  XXXXXXXXXXXXXXXX.XXXXXXXXXXXXXXXXXXXXXXXXXXXXXXXXXXXXXXXX.XXXXXXXXXXXXXXXXXXXXXXXXXXXXXXXXXXXXXXXXXXXXXXXXXXXXXXXXXXXXXXXXXX  ",
"  XXXXXXXXXXXXXXXXXXXXXXXXXXXXXXXXXXXXXXXXXXXXXXXXXXXXXXXXXXXXXXXXXXXXXXXXXXXXXXXXXXXXXXXXXXXXXXXXXXXXXXXXXXXXXXXXXXXXXXXXXXXX  ",
"   XXXXXXXXXXXXXXXXXXXXXXXXXXXXXXXXXXXXXXXXXXXXXXXXXXXXXXXXXXXXXXXXXXXXXXXXXXXXXXXXXXXXXXXXXXXXXXXXXXXX.XXXXXXXX.XXXXXXXXXXXX   ",
"   XXXXXXXXXXXXXXXXXXXXXXXXXXXXXXXXXXXXXXXXXXXXXXXXXXXXXXXXXXXXXXXXXXXXXXXXX.XXXXXXXXXXXXXXXXXXXXXXXXXXXXXXXXXXXXXXXXXXXXXXXX   ",
"   XXXXXXXXXXXXXXXXXXXXXXXXXXXXXXXXXXXXXXXXXXXXXXXXXXXXXXXXXXXXX.XXXXXXXXXXXXXXXXXXXXXXXXXXXXXXXXXXXXXXXXXXXX.XXXXXXXXXXXXXXX   ",
"    XXXXXXXXXXXXXXXXXXXXXXXXXX.XXXXXXXXXXXXXXXXXXXXXXX.XXXXXXXXXXXXXXXXXXXXXXXXXXXXXXXXXXXXXXXXXXXXXXXXXXXXXXXXXXXXXXXXXXXXX    ",
"    XXXXXXXXXXXXXXXXXXXXXXXXXXXXXXXXXXXXXXXXXXXXXXXXXXXXXXXXXXXXXXXXXXXXX.XXXXXXXXXXXXXXXXXXXXXXXXXXXXXXXXXXXXXXXXXXXXXXXXXX    ",
"    XXXXXXXXXXXXXXXXXXXXXXXXXXXXXXXXXXXXX.XXXXXXXXXXXXXXXXXXXXXXXXXXXXXXXXXXXXXXXXXXXXXXXXXXXXXXXXXXXXX.XXXXXXXXXXXXXXXXXXXX    ",
"     XXXXXXX.XXXXXXXXXXXXXXXXX.XXXXXXXXXXXXXXXXXXXXXXXXXXXXXXXXXXXXXXXXXXXXXXXXXXXXXXXXXXXXXXXXXXXXXXXXXXXXXXXXXXXXXXXXXXXX     ",
"     XXXXXXXXXXXXXXXXXXXXXXXXXXXXXXXXXXXXXXXXXXXXXXXXXXXXXXXXXXXXXXXXXXXXXXXXXXXXXXXXXXXXXXXXXXXXXXXXXXXXXXXXXXXXXXXXXXXXXX     ",
"      XXXXXXXXXX.XXXXXXXXXXXXXXXXXXX.XXXXXXXXXXXXXXXXXXXXXXXXXXXXXXXXXXXXXXXXXXXXXXXXXXXXXXXXXXXXXXXXXXXXXXXXXXXXXXXXXXXXX      ",
"      XXXXXXXXXXXXXXXXXXXXXXXXXXXXXXXXXXXXXXXXXXXXXXXXXXXXXXXXXXXXXXXXXXXXXXXXXXXXXXXXXXXXXXX.XXXXXXXXXXXXXXXXXXXXXXXXXXXX      ",
"       XXXXXXXXXXXXXXXXXXXXXXXXXXXXXXXXXXXXXXXXXXXXXXXXXXXXXXXXXXXXXXXXXXXXXXXXXXXX.XXXXXXXXXXXXXXXXXXXXXXXXXXXXXXXXXXXXX       ",
"       XXXXXXXXXXXXXXXXXXXXXXXXXXXXXXXXXXXXXXXXXXXXXXXXXXXX.XXXXXXXXXXXXXXXXXXXXXXXXXXXXXXXXXXXXXXXXXXXXXXXXXXXXXXXXXXXXX       ",
"        XXXXXXXXXXXXXXXXXXXXXXXXXXXXXXXXXXXXXXXXXXXXXXXXXXXXXXXXXXXXXXXXXXXXXXXXXX.XXXXXXXXXXXXXXXXXXXXXXXXXXXXXXXXXXXXX        ",
"        XXXXXXXXXXXXXXXXXXXXXXXXXXXXXXXXXXXXXXXXXXXXXXXXXXXXX.XXXXXXXXXXXXXXXXXXXXXXXXXXXXXXXXXXXXXXXXXXXXXXXXXXXXXXXXXX        ",
"         XXXXXXXXXXXXXXXXXXXXXXXXXXXXXXXXXXXXXXXXXXXXXXXXXXXXXXXXXXXXXXXXXXXXXXXXXXXXXXXXXXXXXXXXXXX.XXXXXXXXXXXXXXXXXX         ",
"          XXXXXXXXXXXXXXXXXXXXXXXXXXXXXXXXXXXXXXXXXXXX.XXXXXXXXXXXXXXXXXXXXXXXXXXXXXXXXXXXXX.XXXXXXXXXXXXXXXXXXXXXXXXX          ",
"          XXXXXXXXXXXXXXXXXXXXXXXXXXXXXXXXXXXXXXXXXXXXXXXXXXXXXXXXXXXXXXXXXXXXXXXXXXXXXXXXXXXXXXXXXXXXXXXXXXXXXXXXXXXX          ",
"           XXXXXXXXXXXXXXXXXXXXXXXXX.XXX.XXXXXXXXXXXXXXXXXXXXXXXXXXXXXXXXXXXXXXXXXXXXXXXXXXXXXXXXXXXXXXXXXXXXXXXXXXXX           ",
"            XXXXXXXXXXX.XXX.XXXXXXXXXXXXXXXXXXXXXXXXXXXXXXXXXXXXXXXXXXXX.XXXXXXXXXXXXXXXXXXXXXXXXXXXXXXXXXXXXXXXXXXX            ",
"             XXXXXXXXXXXXXXXXXXXXXXXXXXXXXXXXXXXXXXXXXXXXXXXXXXXXXXXXXXXXXXXXXXXXXXXXXXXXXXXXXXXXXXXXXXXXXXXXXXXXXX             ",
"             XXXXXXXXXXXXXXXXXXXXXXXXXXXXXXXXXXXXXXXXXXXXXXXXXXXXXXXXXXXXXXXXXXXXXXXXXXXXXXXXXXXXXXXXXXXXXXXXXXXXXX             ",
"              XXXXXXXXXXXXXXXXXXXXXXXXXXXXXXXXXXXXXXXXXXXXXXXXXXXXXXXXXXXXXXXXXXXXXXXXXXXXXXXXXXXXXXXXXXXXXXXXXXXX              ",
"               XXXXXXXXXXXXXXXXXXXXXXXXXXXXXXXXXXXXXXXXXXXXXXXXXXXXXXXXXXXXXXXXXXXXXXXXXXXXXXXXXXXXXXXXXXXXXXXXXX               ",
"                XXXXXXXXXXXXXXXXXXXXXXXXXXXXXXXXXXXXXXXXXXXXXXXX.XXXXXXXXXXXX.XXXXXXXXXXXXXXXXXXXXXXXXXXXXXXXXXX                ",
"                 XXXXXXX.XXXXXXXXXXXXXXXXXXXXXXXXXXXXXXXXXXXXXXXXXXXXXXXXXXXXXXXXXXXXXXXXXXXXXXXXXXXXXXXXXXXXXX                 ",
"                  XXXXXXXXXXXXXXXXXXXXXXXXXXXXXXXXXXX.XXXXXXXXXXXXXXXXXXXXXXXXXXXXXXXXXXXXXXXXXXXXXXXXXXXXXXXX                  ",
"                   XXXXXXXXXXXXXXXXXXXX.XXXXXXXXXXXXXXXXXXXXXXXXXXXXXXXXXXXXXXXXXXXX.XXXXXXXXXXXXXXXXXXXXXXXX                   ",
"                    XXXXXXXXXXXXXXXXXXXXXXXXXXXXXXXXXXXXXXXXXXX.XXXXXXXXXXXXXXXXXXXXXXXXXXXXXXXXXXXXX.XXXXXX                    ",
"                     XXXXXXXXXXXXXXXXXXXXXXXX.XXXXXXXXXXXXXXXXXXXXXXXXXXXXXXXXX.XXXXXXXXXXXXXXXXXXXXXXXXXXX                     ",
"                      XXXXXXXXXXXXXXXXXXXXXXXXXXXXXXXXXX.XXXXXXXXXXXXXXXXXXXXXXXXXXXXXXXXXXXXXXXXXXXXXXXXX                      ",
"                       XXXXXXXXXXXXX.XXXXXXXXXXXXXXXXXXXXXXXXXXXX.XXXXXXXXXXXXXXXXXXXXXXXXXXXXXXXXXXXXXXX                       ",
"                         XXXXXXXXXXXXXXXXXXXXXXXXXXXXXXXXXXXXXXXXXXXXXXXXXXXXXXXXXXXXXXXXXXXXXXXXXXXXXX                         ",
"                          XXXXXXXXXXXXXXXXXXXXXXX.XXXXXXXXXXXXXXXXXXXXXXXXXXXXXXXXXXXXXXXXXXXXXXXXXXXX                          ",
"                           XXXXXXXXXXXXXXXXXXXXXXXXXXXXXXXXXXXXXXXXXXXXXXXXXXXXXXXXXXXXXXXXXXXXXXXXXX                           ",
"                             XXXXXXXXXXXXXXXXXXXXXXXXXXXXXXXXXXXXXXXXXXXXXXXXXXXXXXXXXXXXXXXXXXXXXX                             ",
"                               XXXXXXXXXXXXXXXXXXXXXXXXXXXXXXXXXXXXXXXXXXXXXXXXXXXXXXXXXXXXXXXXXX                               ",
"                                XXXXXXXXXXXXXXXXXXXXXXXXXXXXXXXXXXXXXXXXXXXXXXXXXXXXXXXXXXXXXXXX                                ",
"                                  XXXXXXXXXXXXXXXXXXXXXXXXXXXXXXXXXXXXXXXXXXXXXXXXXXXXXXXXXXXX                                  ",
"                                    XXXXXXXXXXXXXXXXXXXXXXXXXXXXXXXXXXXXXXXXX.XXXXXXXXXXXXXX                                    ",
"                                      XXXXXXXXXXXXXXXXXXXX.XXXXXXXXXXXXXXXXXXXXXXXXXXXXXXX                                      ",
"                                         XXXXXXXXXXXXXXXXXXXXXXXXXXXXXXXXXXXXXXXXXXXXXX                                         ",
"                                            XXXXXXXXXXXXXXXXXXXXXXXXXXXXXXXXXXXXXXXX                                            ",
"                                               XXXXXXXXXXXXXXXXXXXXXXXXXXXXXXXXXX                                               ",
"                                                     XXXXXXXXXXXXXXXXXXXXXX                                                     "
};
