/* XPM */
static char *c9ac41bfc5974cacb538cf891c708a4f[] = {
/* columns rows colors chars-per-pixel */
"32 32 154 2 ",
"   c None",
".  c #7D0000",
"X  c #7E0000",
"o  c #7F0000",
"O  c #7F0101",
"+  c #800000",
"@  c #800101",
"#  c #800202",
"$  c #810202",
"%  c #810303",
"&  c #810404",
"*  c #810505",
"=  c #820505",
"-  c #830606",
";  c #830707",
":  c #840707",
">  c #840808",
",  c #840909",
"<  c #850B0B",
"1  c #860C0C",
"2  c #860D0D",
"3  c #870F0F",
"4  c #880F0F",
"5  c #881010",
"6  c #891111",
"7  c #881212",
"8  c #891212",
"9  c #891414",
"0  c #8B1616",
"q  c #8B1717",
"w  c #8C1818",
"e  c #8C1919",
"r  c #8D1A1A",
"t  c #8D1B1B",
"y  c #8E1C1C",
"u  c #8E1D1D",
"i  c #8F1E1E",
"p  c #8F1F1F",
"a  c #901F1F",
"s  c #8F2020",
"d  c #902020",
"f  c #902121",
"g  c #912121",
"h  c #912222",
"j  c #912323",
"k  c #922424",
"l  c #922525",
"z  c #952A2A",
"x  c #962D2D",
"c  c #972E2E",
"v  c #983030",
"b  c #983131",
"n  c #993232",
"m  c #993333",
"M  c #9A3333",
"N  c #993434",
"B  c #9A3535",
"V  c #9C3737",
"C  c #9D3B3B",
"Z  c #9F3E3E",
"A  c #9F3F3F",
"S  c #A04040",
"D  c #A04141",
"F  c #A14141",
"G  c #A14343",
"H  c #A14444",
"J  c #A24444",
"K  c #A24545",
"L  c #A34646",
"P  c #A54B4B",
"I  c #A64D4D",
"U  c #A74E4E",
"Y  c #A74F4F",
"T  c #A95151",
"R  c #A95252",
"E  c #A95353",
"W  c #AA5353",
"Q  c #AB5757",
"!  c #AC5858",
"~  c #AD5B5B",
"^  c #AF5E5E",
"/  c #B46868",
"(  c #B66D6D",
")  c #BC7878",
"_  c #BD7A7A",
"`  c #BE7D7D",
"'  c #BF7E7E",
"]  c #C08080",
"[  c #C18282",
"{  c #C89090",
"}  c #C89191",
"|  c #C99393",
" . c #CA9494",
".. c #CA9595",
"X. c #CB9696",
"o. c #CB9797",
"O. c #CC9898",
"+. c #CC9999",
"@. c #CE9D9D",
"#. c #CF9E9E",
"$. c #CF9F9F",
"%. c #D0A1A1",
"&. c #D1A2A2",
"*. c #D1A3A3",
"=. c #D2A5A5",
"-. c #D3A7A7",
";. c #D5AAAA",
":. c #D5ABAB",
">. c #D6ACAC",
",. c #D7AFAF",
"<. c #DAB4B4",
"1. c #DAB5B5",
"2. c #DEBDBD",
"3. c #E0C0C0",
"4. c #E0C1C1",
"5. c #E1C3C3",
"6. c #E2C5C5",
"7. c #E2C6C6",
"8. c #E4C8C8",
"9. c #E5CACA",
"0. c #E7CFCF",
"q. c #E8D0D0",
"w. c #E8D1D1",
"e. c #E9D2D2",
"r. c #E9D3D3",
"t. c #EAD4D4",
"y. c #EAD5D5",
"u. c #EBD6D6",
"i. c #EBD7D7",
"p. c #ECD8D8",
"a. c #ECD9D9",
"s. c #EDDCDC",
"d. c #EEDDDD",
"f. c #EFDEDE",
"g. c #EFDFDF",
"h. c #F0E0E0",
"j. c #F1E3E3",
"k. c #F1E4E4",
"l. c #F2E4E4",
"z. c #F2E5E5",
"x. c #F3E8E8",
"c. c #F4E8E8",
"v. c #F4E9E9",
"b. c #F4EAEA",
"n. c #F6ECEC",
"m. c #F6EDED",
"M. c #F7EEEE",
"N. c #F7EFEF",
"B. c #F8F2F2",
"V. c #F9F3F3",
"C. c #FBF8F8",
"Z. c #FCF9F9",
"A. c #FDFAFA",
"S. c #FEFDFD",
/* pixels */
"                      + + + + + + + + + +                       ",
"                  + + + + + + + + + + + + + +                   ",
"              + + + + + + + + + + + + + + + + + +               ",
"            + + + + + + + + + + + + + + + + + + + +             ",
"          + + + + + + + + + + + + + + + + + + + + + +           ",
"        + + + + + + + + + + + + + + + + + + + + + + + +         ",
"      + + + + + + + + + + + + + + + + + + + + + + + + + +       ",
"    + + + + + + + + + + + + + + + + + + + + + + + + + + + +     ",
"    + + + + + + + + + + + + + + + + + + + + + + + + + + + +     ",
"  + + + + + + + + + + + + + + + + + + + + + + + + + + + + + +   ",
"  + + + + + + o + + + + + + + + + + + + + + o + + + + + + + +   ",
"+ o o + + o o o o o o o + + o + o + + + o o o o o + + + o o o + ",
"> u 5 o + r e ; r u a a > : u u u 3 + + 5 a a u 9 o o ; d x 9 ; ",
"5 *.<.9 N q._ u 7.g.p.p.I z r.p.r.5.I o [ j.p.g.#.; d *.g.i.7.S ",
"o H c.} <.q.u s z.<.H H 0 n V.} H z.<.+ X.N.^ H n > *.m./ x T x ",
"+ + ' A.N.Y o s j.u.o.} d n V.7.#.m.' o } A.=.O.Q d z.:.; o o + ",
"o o ( A.m.A o d z.p.#.X.d n N.5.} g.%.; } A.,.*.~ k c.*.o + o o ",
"o v g.,.8.2.9 d z.=.9 e > N V.' 3 ,.j.r X.b.N 9 5 3 2.g.N > s r ",
"3 :.r.s H b._ d g.c.u.r.~ n m.g.7.z.X.; } A.i.u.:.> S u.g.5.9.I ",
"9 P x o + Z S 5 L T T T k 3 I T T C 3 o v T T T S ; + d Q / H 5 ",
"+ o o o + o o + o o o o o + o o o o + + o o o o o + + o o o o o ",
"  + + + + + o o + + o o + + o + o o + + + o + + o + + + + + +   ",
"  + + + + + + + + + o + + + + + + + + + + + + + + + + + + + +   ",
"    + + + + + + + + + + + + + + + + + + + + + + + + + + + +     ",
"    + + + + + + + + + + + + + + + + + + + + + + + + + + + +     ",
"      + + + + + + + + + + + + + + + + + + + + + + + + + +       ",
"        + + + + + + + + + + + + + + + + + + + + + + + +         ",
"          + + + + + + + + + + + + + + + + + + + + + +           ",
"            + + + + + + + + + + + + + + + + + + + +             ",
"              + + + + + + + + + + + + + + + + + +               ",
"                  + + + + + + + + + + + + + +                   ",
"                      + + + + + + + + + +                       "
};
