/* XPM */
static char *_87515b699a44bce92da37e607ad873d[] = {
/* columns rows colors chars-per-pixel */
"16 16 65 1 ",
"  c None",
". c #7E0000",
"X c #7F0000",
"o c #800000",
"O c #800101",
"+ c #810101",
"@ c #810202",
"# c #810303",
"$ c #8B1616",
"% c #8F1F1F",
"& c #912222",
"* c #922525",
"= c #932626",
"- c #952A2A",
"; c #962D2D",
": c #972D2D",
"> c #993232",
", c #9B3636",
"< c #9C3737",
"1 c #9C3939",
"2 c #9D3A3A",
"3 c #9E3D3D",
"4 c #9F3D3D",
"5 c #A14141",
"6 c #A14343",
"7 c #A24343",
"8 c #A24444",
"9 c #A24545",
"0 c #A34545",
"q c #A34646",
"w c #A64C4C",
"e c #A74E4E",
"r c #AA5454",
"t c #AC5858",
"y c #AD5B5B",
"u c #AF5E5E",
"i c #B26565",
"p c #B46969",
"a c #B56A6A",
"s c #B66D6D",
"d c #B76E6E",
"f c #B87070",
"g c #B97272",
"h c #B97373",
"j c #BA7575",
"k c #BD7B7B",
"l c #BF7E7E",
"z c #C08080",
"x c #C08181",
"c c #C18282",
"v c #C18383",
"b c #CA9494",
"n c #D0A1A1",
"m c #D0A2A2",
"M c #D1A2A2",
"N c #D3A7A7",
"B c #D5AAAA",
"V c #D5ABAB",
"C c #D6ADAD",
"Z c #D7AFAF",
"A c #D9B2B2",
"S c #DBB6B6",
"D c #DBB7B7",
"F c #DEBDBD",
"G c #E0C2C2",
/* pixels */
"     oooooo     ",
"   oooooooooo   ",
"  oooooooooooo  ",
" oooooooooooooo ",
" oooooooooooooo ",
"XXXXXXXoXXXoXXXX",
"449,pi;pi&ys-1hw",
"*Zn,Gl9FDuZb9N9*",
"%Am,Fs7DmhBx9B:$",
"wwrqxj1vl1hx,ext",
"ooooooooXXooooo#",
" oooooooooooooo ",
" oooooooooooooo ",
"  oooooooooooo  ",
"   oooooooooo   ",
"     oooooo     "
};
