/* XPM */
static char *_28311a3e753405bf1abfba12d6edf44[] = {
/* columns rows colors chars-per-pixel */
"64 64 245 2 ",
"   c None",
".  c #7A0000",
"X  c #7B0000",
"o  c #7C0000",
"O  c #7D0000",
"+  c #7E0000",
"@  c #7F0000",
"#  c #800000",
"$  c #810000",
"%  c #800101",
"&  c #810101",
"*  c #800202",
"=  c #810202",
"-  c #810303",
";  c #820303",
":  c #810404",
">  c #820404",
",  c #820505",
"<  c #810707",
"1  c #830606",
"2  c #820707",
"3  c #830707",
"4  c #830808",
"5  c #840808",
"6  c #840909",
"7  c #850909",
"8  c #850A0A",
"9  c #850B0B",
"0  c #860D0D",
"q  c #870D0D",
"w  c #860E0E",
"e  c #870E0E",
"r  c #870F0F",
"t  c #881010",
"y  c #881111",
"u  c #891212",
"i  c #891313",
"p  c #8A1313",
"a  c #8A1414",
"s  c #8B1515",
"d  c #8B1616",
"f  c #8B1717",
"g  c #8B1818",
"h  c #8B1B1B",
"j  c #8C1818",
"k  c #8C1919",
"l  c #8D1A1A",
"z  c #8D1B1B",
"x  c #8E1B1B",
"c  c #8D1C1C",
"v  c #8E1C1C",
"b  c #8E1D1D",
"n  c #8F1D1D",
"m  c #8F1E1E",
"M  c #8F1F1F",
"N  c #8F2020",
"B  c #902020",
"V  c #912222",
"C  c #912424",
"Z  c #922424",
"A  c #922525",
"S  c #922626",
"D  c #932727",
"F  c #912828",
"G  c #922828",
"H  c #942929",
"J  c #942A2A",
"K  c #952B2B",
"L  c #972F2F",
"P  c #983030",
"I  c #983131",
"U  c #993333",
"Y  c #9A3434",
"T  c #9A3535",
"R  c #9B3636",
"E  c #9B3737",
"W  c #9B3838",
"Q  c #9C3838",
"!  c #9C3939",
"~  c #9D3A3A",
"^  c #9E3B3B",
"/  c #9E3C3C",
"(  c #9D3F3F",
")  c #9F3E3E",
"_  c #9E4040",
"`  c #A04141",
"'  c #A14141",
"]  c #A14242",
"[  c #A14343",
"{  c #A24444",
"}  c #A24545",
"|  c #A34545",
" . c #A24646",
".. c #A34646",
"X. c #A34949",
"o. c #A44848",
"O. c #A54A4A",
"+. c #A64D4D",
"@. c #A74D4D",
"#. c #A74E4E",
"$. c #A74F4F",
"%. c #A85050",
"&. c #A95252",
"*. c #AB5656",
"=. c #AB5858",
"-. c #AD5A5A",
";. c #AD5B5B",
":. c #AE5C5C",
">. c #AE5D5D",
",. c #AF5F5F",
"<. c #B06060",
"1. c #B06161",
"2. c #B16262",
"3. c #B26464",
"4. c #B26565",
"5. c #B36666",
"6. c #B56969",
"7. c #B56A6A",
"8. c #B66C6C",
"9. c #B76E6E",
"0. c #B76F6F",
"q. c #B87070",
"w. c #B87171",
"e. c #B97272",
"r. c #B97373",
"t. c #BA7474",
"y. c #BB7575",
"u. c #BB7676",
"i. c #BB7777",
"p. c #BB7878",
"a. c #BC7878",
"s. c #BD7A7A",
"d. c #BE7C7C",
"f. c #BE7D7D",
"g. c #BF7E7E",
"h. c #BF7F7F",
"j. c #C08080",
"k. c #C08181",
"l. c #C18383",
"z. c #C38686",
"x. c #C38787",
"c. c #C48989",
"v. c #C58A8A",
"b. c #C68B8B",
"n. c #C58C8C",
"m. c #C68C8C",
"M. c #C68D8D",
"N. c #C78D8D",
"B. c #C78E8E",
"V. c #C78F8F",
"C. c #C89191",
"Z. c #C99393",
"A. c #CA9595",
"S. c #CA9696",
"D. c #CB9797",
"F. c #CC9999",
"G. c #CD9B9B",
"H. c #CE9C9C",
"J. c #D0A1A1",
"K. c #D0A2A2",
"L. c #D1A3A3",
"P. c #D2A4A4",
"I. c #D4A9A9",
"U. c #D4AAAA",
"Y. c #D5AAAA",
"T. c #D6ACAC",
"R. c #D7AEAE",
"E. c #D7AFAF",
"W. c #D8B0B0",
"Q. c #D8B1B1",
"!. c #D9B2B2",
"~. c #D9B3B3",
"^. c #DAB4B4",
"/. c #DAB5B5",
"(. c #DAB6B6",
"). c #DBB7B7",
"_. c #DDBABA",
"`. c #DDBBBB",
"'. c #DDBCBC",
"]. c #DEBCBC",
"[. c #DEBDBD",
"{. c #DFBEBE",
"}. c #E0C1C1",
"|. c #E1C2C2",
" X c #E1C3C3",
".X c #E1C4C4",
"XX c #E2C5C5",
"oX c #E3C6C6",
"OX c #E5CACA",
"+X c #E5CBCB",
"@X c #E6CDCD",
"#X c #E6CECE",
"$X c #E7CFCF",
"%X c #E8D0D0",
"&X c #E8D1D1",
"*X c #E9D4D4",
"=X c #EAD5D5",
"-X c #EBD7D7",
";X c #EBD8D8",
":X c #ECD8D8",
">X c #ECD9D9",
",X c #EDDADA",
"<X c #EEDCDC",
"1X c #EEDDDD",
"2X c #EEDEDE",
"3X c #EFDEDE",
"4X c #EFDFDF",
"5X c #F0E0E0",
"6X c #F0E1E1",
"7X c #F1E2E2",
"8X c #F1E3E3",
"9X c #F1E4E4",
"0X c #F2E4E4",
"qX c #F2E5E5",
"wX c #F3E6E6",
"eX c #F3E7E7",
"rX c #F4E9E9",
"tX c #F5EAEA",
"yX c #F5EBEB",
"uX c #F6ECEC",
"iX c #F6EEEE",
"pX c #F7EEEE",
"aX c #F7EFEF",
"sX c #F7F0F0",
"dX c #F8F0F0",
"fX c #F8F1F1",
"gX c #F9F2F2",
"hX c #F9F3F3",
"jX c #F9F4F4",
"kX c #FAF4F4",
"lX c #FAF5F5",
"zX c #FAF6F6",
"xX c #FBF6F6",
"cX c #FBF7F7",
"vX c #FBF8F8",
"bX c #FCF8F8",
"nX c #FCF9F9",
"mX c #FCFAFA",
"MX c #FDFAFA",
"NX c #FDFBFB",
"BX c #FEFCFC",
"VX c #FEFDFD",
"CX c #FEFEFE",
"ZX c #FFFEFE",
"AX c white",
/* pixels */
"                                                  $ @ $ @ $ @ $ @ $ @ $ @ $ @                                                   ",
"                                          $ @ $ $ @ $ @ $ @ $ @ $ @ $ @ $ @ @ $ @ $ $                                           ",
"                                      $ $ @ $ @ @ $ @ $ @ $ @ $ @ $ @ $ $ @ $ @ $ @ $ @ $                                       ",
"                                  @ $ @ @ $ @ $ $ @ $ @ $ @ $ @ $ @ $ @ @ $ @ $ @ $ @ $ @ $ $                                   ",
"                              $ @ $ @ $ @ $ @ $ @ $ @ $ @ $ @ $ $ @ $ @ $ @ $ @ $ @ $ @ $ @ $ @ $                               ",
"                          $ $ @ $ @ $ @ $ @ $ @ $ @ $ @ $ @ $ @ @ $ @ $ @ $ @ $ @ $ @ $ @ $ @ $ @ $ $                           ",
"                        @ $ @ $ @ $ @ $ @ $ @ $ @ $ @ $ @ $ @ $ $ @ $ @ $ @ $ @ $ @ $ @ $ @ $ @ $ @ $ @                         ",
"                      @ $ @ $ @ $ @ $ @ $ @ $ @ $ @ $ @ $ @ $ @ @ $ @ $ @ $ @ $ @ $ @ $ @ $ @ $ @ $ @ $ $                       ",
"                    $ @ $ @ $ @ @ $ @ $ @ $ @ $ @ $ @ $ @ $ @ $ $ @ $ @ $ @ $ @ $ @ $ @ $ @ $ @ @ $ @ $ @ $                     ",
"                  $ @ $ @ $ @ $ $ @ $ @ $ @ $ @ $ @ $ @ $ @ $ @ @ $ @ $ @ $ @ $ @ $ @ $ @ $ @ $ $ @ $ @ $ @ $                   ",
"                $ @ $ @ $ @ $ @ @ $ @ $ @ $ @ $ @ $ @ $ @ $ @ $ $ @ $ @ $ @ $ @ $ @ $ @ $ @ $ @ @ $ @ $ @ $ @ $                 ",
"              $ @ $ @ $ @ $ @ $ $ @ $ @ $ @ $ @ $ @ $ @ $ @ $ @ @ $ @ $ @ $ @ $ @ $ @ $ @ $ @ $ $ @ $ @ $ @ $ @ $               ",
"            $ @ $ @ $ @ $ @ $ @ @ $ @ $ @ $ @ $ @ $ @ $ @ $ @ $ $ @ $ @ $ @ $ @ $ @ $ @ $ @ $ @ @ $ @ $ @ $ @ $ @ $             ",
"          @ @ $ @ $ @ $ @ $ @ $ $ @ $ @ $ @ $ @ $ @ $ @ $ @ $ @ @ $ @ $ @ $ @ $ @ $ @ $ @ $ @ $ $ @ $ @ $ @ $ @ $ @ $           ",
"          $ $ @ $ @ $ @ $ @ $ @ @ $ @ $ @ $ @ $ @ $ @ $ @ $ @ $ $ @ $ @ $ @ $ @ $ @ $ @ $ @ $ @ @ $ @ $ @ $ @ $ @ $ $           ",
"        @ $ @ $ @ $ @ $ @ $ @ $ $ @ $ @ $ @ $ @ $ @ $ @ $ @ $ @ @ $ @ $ @ $ @ $ @ $ @ $ @ $ @ $ $ @ $ @ $ @ $ @ $ @ @ $         ",
"        $ @ $ @ $ @ $ @ $ @ $ @ $ @ $ @ $ @ $ @ @ $ @ $ @ $ @ $ @ $ @ $ @ $ @ $ @ $ @ $ @ $ @ $ @ $ @ $ @ $ @ $ @ $ @ $         ",
"      @ @ $ @ $ @ $ @ $ @ $ @ $ @ $ @ $ @ $ @ $ $ @ $ @ $ @ $ @ $ @ $ @ $ @ $ @ $ @ $ @ $ @ $ @ $ @ $ @ $ @ $ @ $ @ $ @ $       ",
"      $ $ @ $ @ $ @ $ @ $ @ $ @ $ @ $ @ $ @ $ @ @ $ @ $ @ $ @ $ @ $ @ $ @ $ @ $ @ $ @ $ @ $ @ $ @ $ @ $ @ $ @ $ @ $ @ $ $       ",
"    $ @ @ $ @ $ @ $ @ $ @ $ @ $ @ $ @ $ @ $ @ $ $ @ $ @ $ @ $ @ $ @ $ @ $ @ $ @ $ @ $ @ $ @ $ @ $ @ $ @ $ @ $ @ $ @ $ @ @ $     ",
"    $ @ $ @ $ @ $ @ $ @ $ @ $ @ $ @ $ @ $ @ $ @ @ $ @ $ @ $ @ $ @ $ @ $ @ $ @ $ @ $ @ $ @ $ @ $ @ $ @ $ @ $ @ $ @ $ @ $ $ @     ",
"  $ @ $ @ $ @ $ @ $ @ $ @ $ @ $ @ $ @ $ @ $ @ $ $ @ $ @ $ @ $ @ $ @ $ @ $ @ $ @ $ @ $ @ $ @ $ @ $ @ $ @ $ @ $ @ $ @ $ @ @ $ $   ",
"  $ $ @ $ @ $ @ $ @ $ @ $ @ $ @ $ @ $ @ $ @ $ @ @ $ @ $ @ $ @ $ @ $ @ $ @ $ @ $ @ $ @ $ @ $ @ $ @ $ @ $ @ $ @ $ @ $ @ $ @ $ @   ",
"  @ @ $ @ $ @ $ @ $ @ $ @ $ @ $ @ $ @ $ @ $ @ $ $ @ $ @ $ @ $ $ $ @ $ @ $ @ $ @ $ @ $ @ $ @ $ @ $ @ $ @ $ @ $ @ $ @ $ @ $ @ $   ",
"  $ @ @ @ $ @ $ @ $ @ @ @ @ @ @ @ @ @ @ @ @ @ $ @ @ $ @ @ @ @ @ @ @ $ @ $ $ @ $ $ @ @ @ @ @ $ @ @ @ $ @ @ $ $ @ @ @ @ @ @ @ $   ",
"$ 4 b b l , $ @ $ @ t b b d $ , l l b b b l b l i $ @ 9 b b b l l g 0 $ @ @ $ @ 5 l b l b b b l b t @ $ $ @ @ , l R _ W N 4 @ $ ",
"@ N `.8X<X>.@ @ @ g Q.8X8X9.@ B .X8X5X5X5X5X8XqXS.$ @ } <X4X<X8X8X=X|.V.I $ @ @ E =X<X8X5X5X5X5X8Xa.@ @ @ $ R S.;XuXkXsX<XI.R @ ",
"$ $ 5.vXAX:XJ @ $ k.AXAX.Xl @ A 8XAXAXAXAXAXAXAXU., @ +.AXAXAXvXkXAXAXAX%XF @ @ ) fXAXAXAXAXAXAXAXv.@ $ @ *.8XAXAXAXsXkXAXAXk.@ ",
"@ $ 9 K.AXAXP.9 X.yXAXrX} @ @ A 8XAXnXF.r.t.t.t.+.$ @ +.AXAX8X-.} 9.qXAXAX9.@ @ ) fXAXfXv.r.t.t.t.) @ @ W 8XAXAX#X7.) ) 5.(.t.@ ",
"$ @ @ J =XAXkXg.}.AXAXk.@ @ @ A 5XAXkX_ . @ . @ @ $ @ +.nXAX;Xh . 4 ).AXAXg.@ . ) fXAXqXF . . @ @ @ @ , F.AXAX=XI @ @ @ @ 0 l @ ",
"@ $ @ @ >.kXAXvXAXAX'.d @ @ @ A 5XAXkX9.~ _ ) _ g @ @ +.AXAX<XO.R -.4XAXkX%.@ @ ) fXAXyX>.) ) ) ~ i @ l =XAXAXg.@ @ $ @ $ @ @ @ ",
"$ @ $ @ 4 F.AXAXAXqX) @ @ $ @ A 8XAXAXnXvXkXvXkX1.@ @ +.nXAXAXfXsXvXAXvXV.4 @ @ ) fXAXAXnXkXvXvXuX_ @ I yXAXkX+.@ @ @ $ @ $ @ $ ",
"$ @ @ @ @ a.AXAXAX;XA @ $ @ @ A 4XAXAXAXnXnXnXvX1.@ @ @.AXAXnXyXqXfXAXAX}.R @ @ ) fXAXAXnXnXnXnXsX' @ R uXAXkX' @ @ @ $ @ $ @ $ ",
"@ $ @ @ W 4XAXAXAXAXS., @ @ @ A 4XAXvXp...} O.X.b @ @ @.nXAX<X' J ~ I.AXAXR.4 @ ) fXAXuX5.} } O.} d @ F qXAXAX-.@ @ $ @ $ @ $ @ ",
"$ @ @ d (.AXAX(.<XAXfX-.@ $ @ A 4XAXkX_ @ @ . @ @ @ @ +.AXAX:Xb @ @ X.kXAX4Xb @ ) fXAXqXF @ . @ @ @ @ i .XAXAXK., @ @ $ @ @ @ $ ",
"@ $ $ a.nXAXOXN 9.nXAX%XA @ @ A 8XAXvX+.t i i i t $ @ @.nXAX=Xb @ , r.AXAX<Xb . ) fXAXrX~ i i i d 0 @ @ r.AXAXfXr.0 @ @ 9 ' } @ ",
"$ @ ) qXAXuX+.@ 0 I.AXAXH.4 @ A 4XAXAX;XOXOXOX@XK.r @ +.AXAXuXR.J.~.uXAXAXI.4 @ ) fXAXnX*XOXOXOX#Xv., @ g (.AXAXkX'.C.S.`.sXk.@ ",
"@ d '.AXAXV., @ @ L :XAXkX2.@ A 8XAXAXAXAXAXAXAX#Xi @ +.nXAXAXAXAXAXAXkX`.L @ @ ) fXAXAXAXAXAXAXAX~., @ @ B K.fXAXAXAXAXAXnXr.@ ",
"@ I v.V.k.l @ @ $ @ +.V.C.6., d a.V.V.v.V.V.V.V.r.9 @ L v.V.V.V.V.z.t.O.i @ @ @ V z.V.V.V.v.V.V.V.1.$ $ $ @ 9 } v.R.`.~.C.&.0 @ ",
"  @ @ @ @ @ $ $ @ $ @ @ @ @ $ @ $ @ @ @ @ @ @ @ @ @ @ @ @ @ @ @ @ @ @ @ @ @ $ @ @ @ @ @ @ @ @ @ @ $ $ @ @ $ @ @ @ , 9 , @ @ @   ",
"  $ @ $ @ $ @ $ @ $ @ $ @ $ @ $ @ $ @ $ @ $ @ $ $ @ $ @ $ @ $ @ @ @ $ @ $ @ $ @ $ @ $ @ $ @ $ @ $ @ $ @ $ @ $ @ $ @ $ @ $ @ $   ",
"  @ $ @ $ @ $ @ $ @ $ @ $ @ $ @ $ @ $ @ $ @ $ @ @ $ @ $ @ $ @ $ @ $ @ $ @ $ @ $ @ $ @ $ @ $ @ $ @ $ @ $ @ $ @ $ @ $ @ $ @ $ $   ",
"  $ @ $ @ $ @ $ @ $ @ $ @ $ @ $ @ $ @ $ @ $ @ $ $ @ $ @ $ @ $ @ $ @ $ @ $ @ $ @ $ @ $ @ $ @ $ @ $ @ $ @ $ @ $ @ $ @ $ @ $ @ @   ",
"    $ @ $ @ $ @ $ @ $ @ $ @ $ @ $ @ $ @ $ @ $ @ @ $ @ $ @ $ @ $ @ $ @ $ @ $ @ $ @ $ @ $ @ $ @ $ @ $ @ $ @ $ @ $ @ $ @ $ @ $     ",
"    @ $ @ $ @ $ @ $ @ $ @ $ @ $ @ $ @ $ @ $ @ $ $ @ $ @ $ @ $ @ $ @ $ @ $ @ $ @ $ @ $ @ $ @ $ @ $ @ $ @ $ @ $ @ $ @ $ @ $ $     ",
"      @ $ @ $ @ $ @ $ @ $ @ $ @ $ @ $ @ $ @ $ @ @ $ @ $ @ $ @ $ @ $ @ $ @ $ @ $ @ $ @ $ @ $ @ $ @ $ @ $ @ $ @ $ @ $ @ $ @       ",
"      $ @ $ @ $ @ $ @ $ @ $ @ $ @ $ @ $ @ $ @ $ $ @ $ @ $ @ $ @ $ @ $ @ $ @ $ @ $ @ $ @ $ @ $ @ $ @ $ @ $ @ $ @ $ @ $ @ $       ",
"        $ @ $ @ $ @ $ @ $ @ $ @ $ @ $ @ $ @ $ @ @ $ @ $ @ $ @ $ @ $ @ $ @ $ @ $ @ $ @ $ @ $ @ $ @ $ @ $ @ $ @ $ @ $ @ $         ",
"        $ @ $ @ $ @ $ @ $ @ $ @ $ @ $ @ $ @ $ @ $ @ $ @ $ @ $ @ $ @ $ @ $ @ $ @ $ @ $ @ $ @ $ @ $ @ $ @ $ @ $ @ $ @ @ $         ",
"          @ @ $ @ $ @ $ @ $ @ $ @ $ @ $ @ $ @ $ @ $ @ $ @ $ @ $ @ $ @ $ @ $ @ $ @ $ @ $ @ $ @ $ @ $ @ $ @ $ @ $ @ $ $           ",
"          $ @ $ $ @ $ @ $ @ $ @ $ @ $ @ $ @ $ @ $ @ $ @ $ @ $ @ $ @ $ @ $ @ $ @ $ @ $ @ $ @ $ @ $ @ $ @ $ @ $ @ $ @ $           ",
"            $ @ @ $ @ $ @ $ @ $ @ $ @ $ @ $ @ $ @ $ @ $ @ $ @ $ @ $ @ $ @ $ @ $ @ $ @ $ @ $ @ $ @ $ @ $ @ $ @ $ @ $             ",
"              $ $ @ $ @ $ @ $ @ $ @ $ @ $ @ $ @ $ @ $ @ $ @ $ @ $ @ $ @ $ @ $ @ $ @ $ @ $ @ $ @ $ @ $ @ $ @ $ @ $               ",
"                @ $ @ $ @ $ @ $ @ $ @ $ @ $ @ $ @ $ @ $ @ $ @ $ @ $ @ $ @ $ @ $ @ $ @ $ @ $ @ $ @ $ @ $ @ $ @ $                 ",
"                  $ $ @ $ @ $ @ $ @ $ @ $ @ $ @ $ @ $ @ $ @ $ @ $ @ $ @ $ @ $ @ $ @ $ @ $ @ $ @ $ @ $ @ $ @ $                   ",
"                    @ $ @ $ @ $ @ $ @ $ @ $ @ $ @ $ @ $ @ $ @ $ @ $ @ $ @ $ @ $ @ $ @ $ @ $ @ $ @ $ @ $ @ $                     ",
"                      $ @ $ @ $ $ @ $ @ $ @ $ @ $ @ $ @ $ @ $ @ $ @ $ @ $ @ $ @ $ @ $ @ $ @ $ @ $ @ $ @ $                       ",
"                        $ @ $ @ @ $ @ $ @ $ @ $ @ $ @ $ @ $ @ $ @ $ @ $ @ $ @ $ @ $ @ $ @ $ @ $ @ $ @ $                         ",
"                          $ @ $ $ @ $ @ $ @ $ @ $ @ $ @ $ @ $ @ $ @ $ @ $ @ $ @ $ @ $ @ $ @ $ @ $ @ $                           ",
"                              @ @ $ @ $ @ $ @ $ @ $ @ $ @ $ @ $ @ $ @ $ @ $ @ $ @ $ @ $ @ $ @ $ $                               ",
"                                  $ @ @ $ @ $ @ $ @ $ @ $ @ $ @ $ @ $ @ $ @ $ @ $ @ $ @ @ $ $                                   ",
"                                      $ @ $ @ $ @ $ @ $ @ $ @ $ @ $ @ $ @ $ @ $ @ $ @ $ $                                       ",
"                                          $ $ @ $ @ $ @ $ @ $ @ $ @ $ @ $ @ $ @ $ @ $                                           ",
"                                                  $ @ $ @ $ @ $ @ $ @ $ @ $ $                                                   "
};
